REM DIRINDEX 1\2,1\4,1\3\5,1\3\6,1\3\7
REM DIRNAME folder01,folder02,folder03,folder04,folder05,folder06,folder07
TITLE ""
FILE "CD1Track62.mp3" MP3
  TRACK 01 AUDIO
    TITLE "0:"
    INDEX 01 00:00:00
  TRACK 02 AUDIO
    TITLE "5:cjc082_1148"
    INDEX 01 00:00:31
  TRACK 03 AUDIO
    TITLE "0:"
    INDEX 01 00:01:54
  TRACK 04 AUDIO
    TITLE "6:cjc082_1149"
    INDEX 01 00:02:26
  TRACK 05 AUDIO
    TITLE "0:"
    INDEX 01 00:03:47
  TRACK 06 AUDIO
    TITLE "5:cjc082_1150"
    INDEX 01 00:04:21
  TRACK 07 AUDIO
    TITLE "0:"
    INDEX 01 00:05:30
  TRACK 08 AUDIO
    TITLE "6:cjc082_1151"
    INDEX 01 00:06:06
  TRACK 09 AUDIO
    TITLE "0:"
    INDEX 01 00:08:21
  TRACK 10 AUDIO
    TITLE "5:cjc082_1152"
    INDEX 01 00:08:66
  TRACK 11 AUDIO
    TITLE "0:"
    INDEX 01 00:10:29
  TRACK 12 AUDIO
    TITLE "6:cjc082_1153"
    INDEX 01 00:11:01
  TRACK 13 AUDIO
    TITLE "0:"
    INDEX 01 00:13:18
  TRACK 14 AUDIO
    TITLE "5:cjc082_1154"
    INDEX 01 00:13:65
  TRACK 15 AUDIO
    TITLE "0:"
    INDEX 01 00:15:11
  TRACK 16 AUDIO
    TITLE "6:cjc082_1155"
    INDEX 01 00:15:60
  TRACK 17 AUDIO
    TITLE "0:"
    INDEX 01 00:17:70
  TRACK 18 AUDIO
    TITLE "5:cjc082_1156"
    INDEX 01 00:18:41
  TRACK 19 AUDIO
    TITLE "0:"
    INDEX 01 00:19:63
  TRACK 20 AUDIO
    TITLE "6:cjc082_1157"
    INDEX 01 00:20:34
  TRACK 21 AUDIO
    TITLE "0:"
    INDEX 01 00:21:51
  TRACK 22 AUDIO
    TITLE "5:cjc082_1158"
    INDEX 01 00:22:23
  TRACK 23 AUDIO
    TITLE "0:"
    INDEX 01 00:23:69
  TRACK 24 AUDIO
    TITLE "6:cjc082_1159"
    INDEX 01 00:24:39
  TRACK 25 AUDIO
    TITLE "0:"
    INDEX 01 00:25:68
  TRACK 26 AUDIO
    TITLE "5:cjc082_1160"
    INDEX 01 00:26:40
  TRACK 27 AUDIO
    TITLE "0:"
    INDEX 01 00:27:63
  TRACK 28 AUDIO
    TITLE "6:cjc082_1161"
    INDEX 01 00:28:43
  TRACK 29 AUDIO
    TITLE "0:"
    INDEX 01 00:29:48
  TRACK 30 AUDIO
    TITLE "5:cjc082_1162"
    INDEX 01 00:30:24
  TRACK 31 AUDIO
    TITLE "0:"
    INDEX 01 00:31:39
  TRACK 32 AUDIO
    TITLE "6:cjc082_1163"
    INDEX 01 00:32:15
  TRACK 33 AUDIO
    TITLE "0:"
    INDEX 01 00:35:17
  TRACK 34 AUDIO
    TITLE "5:cjc082_1164"
    INDEX 01 00:35:59
  TRACK 35 AUDIO
    TITLE "0:"
    INDEX 01 00:36:72
  TRACK 36 AUDIO
    TITLE "6:cjc082_1165"
    INDEX 01 00:37:48
  TRACK 37 AUDIO
    TITLE "0:"
    INDEX 01 00:40:09
  TRACK 38 AUDIO
    TITLE "5:cjc082_1166"
    INDEX 01 00:40:58
  TRACK 39 AUDIO
    TITLE "0:"
    INDEX 01 00:42:23
  TRACK 40 AUDIO
    TITLE "6:cjc082_1167"
    INDEX 01 00:42:70
  TRACK 41 AUDIO
    TITLE "0:"
    INDEX 01 00:44:05
  TRACK 42 AUDIO
    TITLE "5:cjc082_1168"
    INDEX 01 00:44:56
  TRACK 43 AUDIO
    TITLE "0:"
    INDEX 01 00:46:56
  TRACK 44 AUDIO
    TITLE "6:cjc082_1169"
    INDEX 01 00:47:19
  TRACK 45 AUDIO
    TITLE "0:"
    INDEX 01 00:49:21
  TRACK 46 AUDIO
    TITLE "5:cjc082_1170"
    INDEX 01 00:49:69
  TRACK 47 AUDIO
    TITLE "0:"
    INDEX 01 00:52:02
  TRACK 48 AUDIO
    TITLE "6:cjc082_1171"
    INDEX 01 00:52:53
  TRACK 49 AUDIO
    TITLE "0:"
    INDEX 01 00:54:54
  TRACK 50 AUDIO
    TITLE "5:cjc082_1172"
    INDEX 01 00:55:26
  TRACK 51 AUDIO
    TITLE "0:"
    INDEX 01 00:56:63
  TRACK 52 AUDIO
    TITLE "6:cjc082_1173"
    INDEX 01 00:57:43
  TRACK 53 AUDIO
    TITLE "0:"
    INDEX 01 00:59:24
  TRACK 54 AUDIO
    TITLE "5:cjc082_1174"
    INDEX 01 00:59:69
  TRACK 55 AUDIO
    TITLE "0:"
    INDEX 01 01:01:15
  TRACK 56 AUDIO
    TITLE "6:cjc082_1175"
    INDEX 01 01:01:66
  TRACK 57 AUDIO
    TITLE "0:"
    INDEX 01 01:04:15
  TRACK 58 AUDIO
    TITLE "5:cjc082_1176"
    INDEX 01 01:04:62
  TRACK 59 AUDIO
    TITLE "0:"
    INDEX 01 01:06:08
  TRACK 60 AUDIO
    TITLE "6:cjc082_1177"
    INDEX 01 01:06:57
  TRACK 61 AUDIO
    TITLE "0:"
    INDEX 01 01:07:72
  TRACK 62 AUDIO
    TITLE "7:cjc082_1178"
    INDEX 01 01:09:38
  TRACK 63 AUDIO
    TITLE "0:"
    INDEX 01 01:22:66
